<svg width="60" height="60" viewBox="0 0 60 60" fill="none" xmlns="http://www.w3.org/2000/svg">
<path d="M4.60822 9.75227C4.85901 7.59005 6.17079 5.80503 8.29615 5.335C11.6114 4.60184 18.0373 3.75 30 3.75C41.9627 3.75 48.3886 4.60184 51.7039 5.335C53.8292 5.80503 55.141 7.59005 55.3918 9.75227C55.771 13.022 56.25 18.407 56.25 24.75C56.25 36.5998 49.996 47.6878 39.4598 53.1104C35.9401 54.9217 32.5051 56.25 30 56.25C27.4949 56.25 24.0599 54.9217 20.5402 53.1104C10.004 47.6878 3.75 36.5998 3.75 24.75C3.75 18.407 4.22896 13.022 4.60822 9.75227Z" fill="#8A9CA0"/>
<path fill-rule="evenodd" clip-rule="evenodd" d="M45.2878 18.6754C46.0143 19.6662 45.8519 21.0003 45.181 22.0297C39.7651 30.3397 35.6981 35.7475 33.1598 38.9055C31.4971 40.9743 28.5365 41.1284 26.6464 39.2653C24.3156 36.9678 21.0581 33.5539 17.6856 29.3743C16.7938 28.269 16.6094 26.7177 17.4813 25.5965C18.1638 24.719 18.9333 23.9579 19.6421 23.3412C20.9529 22.2007 22.8735 22.4558 24.0568 23.7282C27.4671 27.3953 29.5181 29.9457 29.5181 29.9457C29.5181 29.9457 32.9293 24.896 38.408 17.1172C39.3053 15.8433 40.9214 15.2484 42.2701 16.0287C43.2638 16.6035 44.3936 17.456 45.2878 18.6754Z" fill="white"/>
<path d="M4.60822 9.75227C4.85901 7.59005 6.17079 5.80503 8.29615 5.335C11.6113 4.60184 18.0373 3.75 30 3.75C41.9627 3.75 48.3886 4.60184 51.7039 5.335C53.8292 5.80503 55.141 7.59005 55.3918 9.75227C55.771 13.022 56.25 18.407 56.25 24.75C56.25 36.5997 49.996 47.6878 39.4598 53.1104C35.9401 54.9218 32.5051 56.25 30 56.25C27.4949 56.25 24.0599 54.9218 20.5402 53.1104C10.004 47.6878 3.75 36.5997 3.75 24.75C3.75 18.407 4.22896 13.022 4.60822 9.75227Z" stroke="#14252B" stroke-width="3.75" stroke-linecap="round" stroke-linejoin="round"/>
<path d="M45.2878 18.6754C46.0143 19.6662 45.8519 21.0003 45.181 22.0297C39.7651 30.3397 35.6981 35.7475 33.1598 38.9055C31.4971 40.9743 28.5365 41.1284 26.6464 39.2653C24.3156 36.9678 21.0581 33.5539 17.6856 29.3743C16.7938 28.269 16.6094 26.7177 17.4813 25.5965C18.1638 24.719 18.9333 23.9579 19.6421 23.3412C20.9529 22.2007 22.8735 22.4558 24.0568 23.7282C27.4671 27.3953 29.5181 29.9457 29.5181 29.9457C29.5181 29.9457 32.9293 24.896 38.408 17.1172C39.3053 15.8433 40.9214 15.2484 42.2701 16.0287C43.2638 16.6035 44.3936 17.456 45.2878 18.6754Z" stroke="#14252B" stroke-width="3.75" stroke-linecap="round" stroke-linejoin="round"/>
</svg>
