<svg width="60" height="60" viewBox="0 0 60 60" fill="none" xmlns="http://www.w3.org/2000/svg">
<path d="M13.0938 26.5907C15.5306 26.4762 18.7863 26.364 22.9353 26.3013L23.3801 18.7393C23.5863 15.2356 26.4875 12.5 29.9971 12.5C33.5068 12.5 36.408 15.2356 36.6141 18.7393L37.059 26.3013C41.208 26.364 44.4636 26.4762 46.9005 26.5907L46.1434 17.5044C45.4955 9.72994 38.9965 3.75 31.1951 3.75H28.7991C20.9978 3.75 14.4988 9.72994 13.851 17.5044L13.0938 26.5907Z" fill="white"/>
<path d="M6.63149 50.4231C6.92105 53.5248 9.4274 55.728 12.5386 55.8824C16.2072 56.0644 21.9277 56.25 30 56.25C38.0723 56.25 43.7928 56.0644 47.4614 55.8824C50.5726 55.728 53.079 53.5248 53.3685 50.4231C53.5783 48.1771 53.75 45.1476 53.75 41.25C53.75 37.3524 53.5783 34.3229 53.3685 32.0769C53.079 28.9753 50.5726 26.772 47.4614 26.6176C43.7928 26.4356 38.0723 26.25 30 26.25C21.9277 26.25 16.2072 26.4356 12.5386 26.6176C9.4274 26.772 6.92105 28.9753 6.63149 32.0769C6.4218 34.3229 6.25 37.3524 6.25 41.25C6.25 45.1476 6.4218 48.1771 6.63149 50.4231Z" fill="#8A9CA0"/>
<path d="M6.63149 50.4231C6.92105 53.5248 9.4274 55.728 12.5386 55.8824C16.2073 56.0644 21.9278 56.25 30 56.25C38.0722 56.25 43.7928 56.0644 47.4614 55.8824C50.5726 55.728 53.079 53.5248 53.3685 50.4231C53.5783 48.1771 53.75 45.1476 53.75 41.25C53.75 37.3524 53.5783 34.3229 53.3685 32.0769C53.079 28.9753 50.5726 26.772 47.4614 26.6176C43.7928 26.4356 38.0722 26.25 30 26.25C21.9278 26.25 16.2073 26.4356 12.5386 26.6176C9.4274 26.772 6.92105 28.9753 6.63149 32.0769C6.4218 34.3229 6.25 37.3524 6.25 41.25C6.25 45.1476 6.4218 48.1771 6.63149 50.4231Z" stroke="#14252B" stroke-width="3.75" stroke-linecap="round" stroke-linejoin="round"/>
<path d="M22.9353 26.3013L23.3801 18.7392C23.5863 15.2356 26.4875 12.5 29.9971 12.5C33.5068 12.5 36.408 15.2356 36.6141 18.7392L37.059 26.3013M13.0938 26.5908L13.851 17.5044C14.4988 9.72994 20.9978 3.75 28.7991 3.75H31.1951C38.9965 3.75 45.4955 9.72994 46.1434 17.5044L46.9005 26.5908" stroke="#14252B" stroke-width="3.75" stroke-linecap="round" stroke-linejoin="round"/>
<path d="M33.1025 42.6713C34.2585 41.7555 35 40.3394 35 38.75C35 35.9886 32.7614 33.75 30 33.75C27.2386 33.75 25 35.9886 25 38.75C25 40.3394 25.7415 41.7555 26.8975 42.6713L26.1011 46.0845C25.8256 47.2649 26.4595 48.437 27.6605 48.6006C28.293 48.6869 29.0728 48.75 30 48.75C30.9272 48.75 31.707 48.6869 32.3395 48.6006C33.5405 48.437 34.1744 47.2649 33.8989 46.0845L33.1025 42.6713Z" fill="white"/>
<path d="M33.1025 42.6713C34.2585 41.7555 35 40.3394 35 38.75C35 35.9886 32.7614 33.75 30 33.75C27.2386 33.75 25 35.9886 25 38.75C25 40.3394 25.7415 41.7555 26.8975 42.6713L26.1011 46.0845C25.8256 47.2649 26.4595 48.437 27.6605 48.6006C28.293 48.6869 29.0727 48.75 30 48.75C30.9273 48.75 31.707 48.6869 32.3395 48.6006C33.5405 48.437 34.1744 47.2649 33.8989 46.0845L33.1025 42.6713Z" stroke="#14252B" stroke-width="3.75" stroke-linecap="round" stroke-linejoin="round"/>
</svg>
