<svg width="60" height="60" viewBox="0 0 60 60" fill="none" xmlns="http://www.w3.org/2000/svg">
<path d="M4.27361 49.9313C4.53325 53.1201 7.0094 55.5196 10.2012 55.7405C13.8754 55.9946 19.546 56.25 27.5 56.25C35.4539 56.25 41.1246 55.9946 44.7988 55.7405C47.9906 55.5197 50.4668 53.1201 50.7264 49.9313C50.9945 46.6381 51.25 41.7335 51.25 35C51.25 28.2665 50.9945 23.3619 50.7264 20.0688C50.4668 16.8799 47.9906 14.4804 44.7988 14.2595C41.1246 14.0054 35.454 13.75 27.5 13.75C19.546 13.75 13.8754 14.0054 10.2012 14.2595C7.0094 14.4804 4.53325 16.8799 4.27363 20.0688C4.0055 23.3619 3.75 28.2665 3.75 35C3.75 41.7335 4.0055 46.6381 4.27361 49.9313Z" fill="#8A9CA0"/>
<path d="M8.95312 14.4644C16.4345 10.5615 25.9899 6.95805 34.9008 4.7653C37.4918 4.12771 40.1693 5.08662 41.5172 7.38952C42.4829 9.03975 43.6624 11.3044 44.9094 14.2674C44.8736 14.2643 44.8377 14.2615 44.8017 14.259C41.1274 14.0049 35.4568 13.7495 27.5028 13.7495C19.5489 13.7495 13.8782 14.0049 10.204 14.259C9.77276 14.2889 9.35456 14.3585 8.95312 14.4644Z" fill="white"/>
<path d="M36.3305 38.9041C36.4485 41.5658 38.5009 43.5498 41.163 43.6565C42.5185 43.7108 44.205 43.75 46.25 43.75C48.295 43.75 49.9815 43.7108 51.337 43.6565C53.9991 43.5498 56.0515 41.5658 56.1695 38.9041C56.2175 37.8204 56.25 36.5239 56.25 35C56.25 33.4761 56.2175 32.1796 56.1695 31.0959C56.0515 28.4342 53.9991 26.4504 51.337 26.3435C49.9815 26.2893 48.295 26.25 46.25 26.25C44.205 26.25 42.5185 26.2893 41.163 26.3435C38.5009 26.4503 36.4485 28.4342 36.3305 31.0959C36.2825 32.1796 36.25 33.4761 36.25 35C36.25 36.5239 36.2825 37.8204 36.3305 38.9041Z" fill="white"/>
<path d="M9.08594 14.3944C16.5471 10.5184 26.0415 6.94494 34.8991 4.7653C37.4901 4.12771 40.1677 5.08662 41.5155 7.38952C42.478 9.03411 43.6526 11.2889 44.895 14.237" stroke="#14252B" stroke-width="3.75" stroke-linecap="round" stroke-linejoin="round"/>
<path d="M36.3305 38.9041C36.4485 41.5658 38.5009 43.5496 41.163 43.6564C42.5185 43.7107 44.205 43.75 46.25 43.75C48.295 43.75 49.9815 43.7108 51.337 43.6565C53.9991 43.5498 56.0515 41.5658 56.1695 38.9041C56.2175 37.8204 56.25 36.5239 56.25 35C56.25 33.4761 56.2175 32.1796 56.1695 31.0959C56.0515 28.4342 53.9991 26.4504 51.337 26.3435C49.9815 26.2893 48.295 26.25 46.25 26.25C44.205 26.25 42.5185 26.2893 41.163 26.3435C38.5009 26.4503 36.4485 28.4342 36.3305 31.0959C36.2825 32.1796 36.25 33.4761 36.25 35C36.25 36.5239 36.2825 37.8204 36.3305 38.9041Z" stroke="#14252B" stroke-width="3.75" stroke-linecap="round" stroke-linejoin="round"/>
<path d="M51.0922 26.334C50.9945 23.8141 50.862 21.7351 50.7264 20.0688C50.4668 16.8799 47.9906 14.4804 44.7988 14.2595C41.1246 14.0054 35.454 13.75 27.5 13.75C19.546 13.75 13.8754 14.0054 10.2012 14.2595C7.0094 14.4804 4.53325 16.8799 4.27363 20.0688C4.0055 23.3619 3.75 28.2665 3.75 35C3.75 41.7335 4.0055 46.6381 4.27361 49.9312C4.53325 53.1201 7.0094 55.5196 10.2012 55.7405C13.8754 55.9946 19.546 56.25 27.5 56.25C35.4539 56.25 41.1246 55.9946 44.7988 55.7405C47.9906 55.5197 50.4668 53.1201 50.7264 49.9312C50.862 48.2649 50.9945 46.1859 51.0922 43.666" stroke="#14252B" stroke-width="3.75" stroke-linecap="round" stroke-linejoin="round"/>
<path d="M45 33.75V36.25" stroke="#14252B" stroke-width="3.75" stroke-linecap="round" stroke-linejoin="round"/>
</svg>
