<svg width="18" height="18" viewBox="0 0 18 18" fill="none" xmlns="http://www.w3.org/2000/svg">
<path d="M3.74023 9.00098C3.74023 10.3934 4.29336 11.7287 5.27792 12.7133C6.26249 13.6979 7.59785 14.251 8.99023 14.251C10.3826 14.251 11.718 13.6979 12.7025 12.7133C13.6871 11.7287 14.2402 10.3934 14.2402 9.00098C14.2402 7.60859 13.6871 6.27323 12.7025 5.28867C11.718 4.3041 10.3826 3.75098 8.99023 3.75098C7.59785 3.75098 6.26249 4.3041 5.27792 5.28867C4.29336 6.27323 3.74023 7.60859 3.74023 9.00098Z" 

/>
<path d="M15.9297 3.18848L8.61719 11.0635L5.24219 7.68848" stroke="#C8EE79" stroke-width="0.75" stroke-linecap="round" stroke-linejoin="round"/>
<path d="M15.5727 7.49558C15.9131 8.9885 15.7353 10.5528 15.0686 11.9313C14.402 13.3098 13.2861 14.4204 11.9045 15.0805C10.5228 15.7407 8.95771 15.911 7.46641 15.5636C5.97511 15.2162 4.64641 14.3717 3.69877 13.1689C2.75113 11.9661 2.24096 10.4767 2.25213 8.94553C2.26331 7.41434 2.79517 5.93253 3.76026 4.74372C4.72535 3.55491 6.06624 2.72988 7.56245 2.40427C9.05866 2.07865 10.6211 2.27185 11.993 2.95208" stroke="#C8EE79" stroke-width="0.75" stroke-linecap="round" stroke-linejoin="round"/>
</svg>
